<?xml version="1.0" standalone="no"?>
<!DOCTYPE svg PUBLIC "-//W3C//DTD SVG 20010904//EN"
 "http://www.w3.org/TR/2001/REC-SVG-20010904/DTD/svg10.dtd">
<svg version="1.0" xmlns="http://www.w3.org/2000/svg"
 width="512.000000pt" height="512.000000pt" viewBox="0 0 512.000000 512.000000"
 preserveAspectRatio="xMidYMid meet">

<g transform="translate(0.000000,512.000000) scale(0.100000,-0.100000)"
fill="#000000" stroke="none">
<path d="M3760 4774 c-219 -32 -362 -84 -514 -187 -78 -53 -196 -166 -257
-246 -56 -74 -139 -233 -165 -314 l-16 -53 -72 9 c-87 11 -368 3 -453 -13 -36
-7 -69 -20 -79 -31 -24 -26 -22 -75 4 -101 21 -21 23 -21 149 -8 114 11 408
11 415 -1 2 -2 2 -140 0 -306 l-3 -303 -233 0 c-250 0 -302 -7 -396 -55 -109
-55 -216 -184 -251 -303 -13 -46 -13 -46 -86 -16 -31 13 -33 17 -33 63 0 43 7
60 54 131 30 44 65 110 77 145 16 42 31 68 47 77 74 39 183 202 197 294 15 97
-53 200 -148 226 l-47 12 0 183 c0 100 -5 206 -11 235 -39 187 -200 348 -387
387 -83 17 -535 14 -605 -4 -172 -45 -310 -180 -361 -354 -12 -42 -16 -100
-16 -248 0 -176 -2 -194 -18 -199 -66 -20 -124 -57 -149 -96 -24 -36 -28 -51
-28 -112 1 -60 6 -81 32 -131 40 -78 87 -135 146 -180 26 -20 47 -41 47 -46 0
-23 73 -167 111 -216 36 -48 40 -58 37 -104 l-3 -50 -81 -33 c-352 -141 -605
-467 -655 -840 -16 -122 -9 -181 25 -214 l26 -27 461 -5 461 -5 47 -105 c86
-193 180 -328 334 -487 l109 -111 -56 -114 c-64 -129 -101 -258 -111 -394 -6
-74 -4 -96 9 -122 34 -66 -44 -62 1246 -62 1291 0 1212 -4 1246 62 22 42 13
171 -21 306 -84 329 -323 600 -639 723 l-71 27 -3 55 c-3 52 0 59 55 141 l58
86 397 0 397 0 -28 -62 c-38 -85 -108 -202 -170 -284 -56 -74 -61 -98 -30
-138 31 -39 78 -36 118 9 76 86 193 286 248 422 l22 52 460 3 459 3 26 24 c14
13 29 40 32 60 10 52 -13 224 -42 321 -23 75 -91 226 -115 256 -4 5 -10 336
-12 735 -3 705 -3 726 -25 805 -118 446 -483 768 -932 824 -81 10 -177 11
-230 4z m-2072 -730 c51 -21 90 -61 102 -103 5 -20 10 -88 10 -152 0 -102 2
-118 20 -137 28 -30 62 -36 97 -18 27 13 32 13 52 0 31 -22 28 -77 -8 -139
-32 -56 -51 -75 -118 -119 -42 -28 -50 -39 -73 -106 -35 -99 -72 -161 -134
-224 -55 -56 -281 -212 -322 -222 -14 -4 -50 -4 -80 -2 -49 4 -68 14 -186 94
-71 49 -153 114 -181 144 -46 50 -127 195 -127 227 0 30 -32 74 -68 92 -73 37
-151 147 -152 213 0 18 8 33 24 43 22 15 27 15 55 1 42 -22 58 -20 92 13 l29
29 0 128 c0 117 2 131 25 169 16 28 39 50 67 64 42 20 56 21 441 21 337 0 403
-2 435 -16z m2632 -73 c19 -10 45 -33 58 -51 21 -32 22 -40 22 -274 0 -266 -7
-312 -61 -424 -17 -34 -56 -90 -87 -124 -55 -59 -260 -206 -328 -234 -75 -31
-127 -14 -287 95 -145 100 -209 165 -260 267 -50 99 -57 152 -57 416 0 238 1
246 23 279 46 69 43 69 517 69 395 0 428 -1 460 -19z m-1420 -934 c68 -35 130
-94 159 -153 19 -38 43 -104 38 -104 -1 0 -26 9 -55 20 -49 19 -76 20 -482 20
-406 0 -433 -1 -482 -20 -29 -11 -54 -20 -55 -20 -3 0 15 56 30 91 17 41 75
109 119 140 15 11 52 29 81 40 47 17 77 19 322 16 l270 -2 55 -28z m1311 -348
c-25 -115 -95 -205 -199 -256 -50 -25 -68 -28 -152 -28 -114 0 -162 18 -241
92 -81 76 -119 172 -119 305 0 46 3 59 13 55 7 -3 55 -32 106 -66 190 -124
295 -123 493 7 l103 68 3 -64 c2 -36 -2 -87 -7 -113z m-3082 -2 c34 -16 67
-21 126 -22 97 0 134 13 255 95 49 33 92 60 95 60 3 0 5 -34 5 -75 0 -143 -69
-254 -198 -317 -60 -30 -75 -33 -157 -33 -78 0 -98 4 -145 27 -125 61 -198
176 -208 325 l-5 86 93 -63 c51 -34 113 -72 139 -83z m2234 -31 c21 -150 157
-312 317 -377 84 -33 236 -38 328 -10 166 50 321 213 348 366 11 68 13 68 92
30 289 -138 476 -401 516 -727 l6 -48 -846 0 -845 0 46 48 c60 62 117 176 123
247 8 97 -52 181 -150 210 l-43 12 -3 125 -3 125 48 21 c26 12 51 21 54 22 4
0 9 -20 12 -44z m-493 -162 c0 -140 -3 -174 -12 -166 -13 10 -39 15 -71 13
-10 0 -29 -12 -42 -26 -55 -55 -16 -145 63 -145 21 0 44 6 51 13 11 10 12 -11
8 -118 -3 -108 -9 -144 -33 -215 -32 -96 -101 -207 -168 -268 -65 -60 -183
-135 -201 -129 -31 12 -241 163 -277 199 -57 57 -106 138 -135 219 -24 73 -55
119 -78 119 -24 0 -94 72 -119 122 -31 62 -32 88 -7 119 17 21 21 22 60 11 32
-10 46 -10 63 -1 43 23 47 39 48 167 0 81 5 133 14 155 17 41 65 85 102 97 16
4 188 9 382 9 l352 1 0 -176z m-877 -840 c55 -82 58 -89 55 -141 l-3 -55 -71
-27 c-135 -53 -251 -128 -359 -233 l-51 -48 -90 92 c-135 138 -232 278 -307
441 l-26 57 397 0 397 0 58 -86z m475 -370 c78 -23 167 -14 244 24 l60 30 -7
-46 c-14 -93 -72 -201 -140 -261 -37 -32 -41 -33 -99 -27 -127 13 -252 106
-295 220 -10 29 -23 89 -27 135 l-7 82 108 -70 c62 -41 130 -78 163 -87z
m-404 -30 c10 -75 69 -185 134 -251 201 -203 523 -204 724 0 66 67 124 175
134 248 6 45 9 49 28 43 58 -18 156 -72 226 -125 200 -151 322 -369 354 -631
l6 -48 -1111 0 -1110 0 7 53 c33 272 183 520 402 661 71 46 166 94 188 95 6 1
14 -20 18 -45z"/>
<path d="M945 3705 c-54 -53 -16 -145 60 -145 49 0 85 36 85 85 0 76 -92 114
-145 60z"/>
<path d="M1445 3705 c-54 -53 -16 -145 60 -145 49 0 85 36 85 85 0 76 -92 114
-145 60z"/>
<path d="M1065 3315 c-35 -35 -32 -71 10 -110 83 -79 246 -87 347 -18 45 30
63 69 49 106 -20 52 -67 60 -138 21 -57 -30 -114 -29 -161 5 -40 28 -77 27
-107 -4z"/>
<path d="M3559 3727 c-44 -34 -50 -92 -14 -131 52 -56 145 -19 145 59 0 66
-81 111 -131 72z"/>
<path d="M4046 3709 c-28 -33 -32 -59 -14 -92 17 -33 39 -46 75 -47 77 0 113
91 58 145 -36 37 -86 34 -119 -6z"/>
<path d="M3677 3338 c-46 -35 -37 -99 18 -137 102 -69 257 -67 343 6 45 39 52
84 19 117 -32 32 -68 33 -108 4 -23 -18 -44 -23 -87 -23 -43 0 -65 6 -89 23
-35 25 -71 28 -96 10z"/>
<path d="M2285 2342 c-64 -13 -88 -100 -40 -147 53 -54 147 -17 147 59 0 59
-48 99 -107 88z"/>
<path d="M2361 1924 c-31 -39 -27 -71 14 -109 91 -86 279 -86 370 0 41 38 45
70 14 109 -26 33 -68 34 -117 4 -23 -14 -52 -22 -82 -22 -30 0 -59 8 -82 22
-49 30 -91 29 -117 -4z"/>
</g>
</svg>
